<?xml version="1.0" encoding="utf-8"?>
<!-- Generator: Adobe Illustrator 27.2.0, SVG Export Plug-In . SVG Version: 6.00 Build 0)  -->
<svg version="1.1" id="Layer_1" xmlns="http://www.w3.org/2000/svg" xmlns:xlink="http://www.w3.org/1999/xlink" x="0px" y="0px"
	 viewBox="0 0 800 800" style="enable-background:new 0 0 800 800;" xml:space="preserve">
<style type="text/css">
	.st0{fill:#CE949C;}
</style>
<g id="mirror-3">
	<path class="st0" d="M400,71.6c-106.5,0-195.6,111.7-217,260L437.9,76.7C425.6,73.6,412.9,71.6,400,71.6z"/>
	<path class="st0" d="M487.2,98.1L178.4,407c0.3,25,2.7,49.3,6.6,72.7l345.1-345.1C516.8,120.2,502.5,107.8,487.2,98.1z"/>
	<path class="st0" d="M400,0C248.2,0,125,179.1,125,400s123.2,400,275,400s275-179.1,275-400S551.8,0,400,0z M400,753.4
		c-136.1,0-246.9-158.6-246.9-353.4S263.9,46.6,400,46.6S646.9,205.1,646.9,400S536.1,753.4,400,753.4z"/>
	<path class="st0" d="M560.9,174.5L198.6,536.8C233.7,649.7,310.6,728.4,400,728.4c122.3,0,221.9-147.4,221.9-328.4
		C621.9,312.7,598.5,233.4,560.9,174.5z"/>
</g>
<g id="Layer_1_00000005952503683808796610000016298690789067567282_">
</g>
</svg>
